<?xml version="1.0" encoding="UTF-8" standalone="no"?>
<!-- Created with Inkscape (http://www.inkscape.org/) -->

<svg
   xmlns:dc="http://purl.org/dc/elements/1.1/"
   xmlns:cc="http://creativecommons.org/ns#"
   xmlns:rdf="http://www.w3.org/1999/02/22-rdf-syntax-ns#"
   xmlns:svg="http://www.w3.org/2000/svg"
   xmlns="http://www.w3.org/2000/svg"
   xmlns:sodipodi="http://sodipodi.sourceforge.net/DTD/sodipodi-0.dtd"
   xmlns:inkscape="http://www.inkscape.org/namespaces/inkscape"
   width="210mm"
   height="297mm"
   viewBox="0 0 210 297"
   version="1.1"
   id="svg8"
   inkscape:version="0.92.2 (5c3e80d, 2017-08-06)"
   sodipodi:docname="lechnbakaren.svg">
  <defs
     id="defs2" />
  <sodipodi:namedview
     id="base"
     pagecolor="#ffffff"
     bordercolor="#666666"
     borderopacity="1.0"
     inkscape:pageopacity="0.0"
     inkscape:pageshadow="2"
     inkscape:zoom="0.35"
     inkscape:cx="-467.14286"
     inkscape:cy="560"
     inkscape:document-units="mm"
     inkscape:current-layer="layer1"
     showgrid="false"
     inkscape:window-width="1920"
     inkscape:window-height="1001"
     inkscape:window-x="-9"
     inkscape:window-y="-9"
     inkscape:window-maximized="1" />
  <metadata
     id="metadata5">
    <rdf:RDF>
      <cc:Work
         rdf:about="">
        <dc:format>image/svg+xml</dc:format>
        <dc:type
           rdf:resource="http://purl.org/dc/dcmitype/StillImage" />
        <dc:title></dc:title>
      </cc:Work>
    </rdf:RDF>
  </metadata>
  <g
     inkscape:label="Layer 1"
     inkscape:groupmode="layer"
     id="layer1"
     style="display:inline">
    <flowRoot
       xml:space="preserve"
       id="flowRoot4532"
       style="font-style:normal;font-weight:normal;font-size:40px;line-height:1.25;font-family:sans-serif;letter-spacing:0px;word-spacing:0px;fill:#000000;fill-opacity:1;stroke:none"
       transform="scale(0.26458333)"><flowRegion
         id="flowRegion4534"><rect
           id="rect4536"
           width="191.42857"
           height="62.857143"
           x="271.42856"
           y="596.80542" /></flowRegion><flowPara
         id="flowPara4538">lechnbakarenlechnbakarene</flowPara></flowRoot>    <g
       id="g4569"
       inkscape:export-xdpi="96"
       inkscape:export-ydpi="96">
      <path
         inkscape:export-ydpi="96"
         inkscape:export-xdpi="96"
         inkscape:connector-curvature="0"
         id="path4550"
         d="m 113.37771,176.60165 c -0.43773,0.0397 -1.92937,0.17777 -3.31475,0.30692 -6.19491,0.57751 -14.04592,0.25874 -19.59448,-0.79557 -8.448,-1.60525 -12.26629,-2.80324 -14.90347,-4.67599 -3.69104,-2.62111 -4.43041,-6.13788 -3.08344,-14.66614 0.35975,-2.27769 0.83182,-5.6382 1.04906,-7.4678 l 0.39497,-3.32656 -1.1415,-5.43773 c -1.23789,-5.89691 -2.75583,-10.86236 -4.97061,-16.25977 -1.40391,-3.42132 -2.32317,-5.09113 -4.97123,-9.03009 -7.39562,-11.0009 -9.81868,-27.330641 -5.72816,-38.603863 1.94431,-5.358411 6.6838,-10.584722 12.85622,-14.176771 3.36612,-1.958915 5.89447,-3.014812 9.36453,-3.910837 5.20617,-1.34432 8.35542,-1.185919 15.87093,0.798279 2.0702,0.54656 5.08967,1.151613 6.70995,1.344563 l 2.94596,0.350816 7.03094,-1.278637 c 7.70893,-1.401935 8.9134,-1.447999 11.33805,-0.433613 1.39246,0.582551 3.0971,1.987367 3.55499,2.92971 0.33088,0.680958 0.3515,0.6756 4.31721,-1.121699 3.36755,-1.526207 8.54135,-2.632441 11.52816,-2.464893 5.79221,0.324921 9.98741,2.602417 12.82368,6.961734 1.74178,2.677109 2.55727,4.62774 3.53563,8.457219 1.85905,7.276631 1.29722,12.483801 -2.29771,21.295831 -2.11774,5.191091 -6.7727,16.109471 -9.99714,23.448631 -5.68836,12.94733 -9.27359,22.2818 -9.91958,25.82655 -0.51397,2.82027 -0.41486,6.20811 0.38799,13.26317 0.81627,7.17297 0.83204,7.96277 0.18306,9.17045 -1.00955,1.87864 -5.02238,4.46549 -9.77106,6.29884 -2.05797,0.79454 -11.73809,2.97437 -14.1982,3.19725 z m 15.71079,-5.39837 c 3.56013,-1.62903 6.78016,-4.02495 6.59538,-4.90741 -0.127,-0.60656 -1.85484,-1.54197 -4.12489,-2.23311 -7.18896,-2.18873 -17.52964,-3.08382 -27.11,-2.34663 -5.16417,0.39738 -14.80894,2.40197 -16.34573,3.39735 -1.53872,0.99661 -2.05093,1.95307 -1.86564,3.4837 0.18962,1.5664 0.96736,2.44667 2.94475,3.33295 3.41013,1.52845 17.81137,3.05227 24.98724,2.64394 3.45717,-0.19672 12.39599,-2.21636 14.9189,-3.37078 z m 7.03852,-9.25893 c -0.33399,-1.61963 -1.21599,-8.47863 -1.31167,-10.2003 -0.21692,-3.9035 0.0984,-7.36312 0.94477,-10.36577 0.90235,-3.20123 0.89541,-3.88487 -0.0521,-5.13269 -1.00298,-1.3208 -2.94214,-2.10144 -9.63379,-3.87823 -6.94401,-1.84379 -10.94582,-2.49733 -16.71679,-2.73 -7.24324,-0.29203 -13.07027,0.22463 -22.83828,2.02502 -5.41513,0.99808 -6.66996,1.3052 -8.22859,2.01392 -2.54881,1.15897 -3.55461,2.11033 -4.02091,3.8033 -0.35117,1.27499 -0.32054,1.70391 0.38041,5.32676 0.92649,4.78851 0.92231,6.14124 -0.041,13.28292 -0.89742,6.65293 -0.95704,10.89441 -0.15077,10.72559 0.15748,-0.033 0.90883,-0.36611 1.66966,-0.7403 0.76083,-0.3742 2.67945,-1.17126 4.26361,-1.77125 4.01069,-1.51902 16.59897,-4.1534 21.57842,-4.51578 7.50917,-0.54645 17.37098,-0.14756 24.03971,0.97237 4.27917,0.71863 8.13805,1.5265 8.94772,1.87323 1.04253,0.44645 1.36466,0.25675 1.16967,-0.68881 z m 1.01012,-29.46414 c 1.22596,-0.84266 3.1126,-3.7366 5.28085,-8.10035 1.05865,-2.13061 2.51246,-5.05037 3.23069,-6.48836 1.94591,-3.89596 3.7406,-8.2668 6.87682,-16.74794 3.2836,-8.879721 4.26561,-12.516291 4.76264,-17.637071 0.33647,-3.466622 0.31862,-3.920082 -0.26373,-6.699802 -1.08704,-5.18896 -3.26288,-9.692714 -6.12802,-12.684601 -3.43708,-3.589138 -7.41701,-4.844408 -12.13211,-3.826468 -3.57209,0.771176 -6.52195,2.417291 -7.67223,4.281339 -1.08939,1.765393 -1.0692,2.548642 0.21267,8.248049 1.07576,4.782991 1.15758,5.381061 1.00744,7.363411 -0.36702,4.845862 -2.78122,12.244662 -5.09056,15.601022 -1.07075,1.5562 -3.11379,3.60142 -3.19762,3.20103 -0.0875,-0.41805 1.47069,-4.60094 3.26276,-8.75852 3.46017,-8.02756 3.94016,-11.130922 2.684,-17.353395 -1.76863,-8.761099 -5.51757,-12.315109 -13.46673,-12.766537 -1.70278,-0.0967 -2.91646,0.04012 -6.02011,0.678665 -4.25592,0.875614 -6.00449,1.518258 -9.07668,3.335909 -2.67527,1.582815 -3.87569,2.700773 -5.5732,5.190352 -3.24871,4.764556 -4.54287,10.993154 -3.99992,19.251036 0.14442,2.19665 1.78388,10.36043 2.21475,11.02851 0.54611,0.846771 -0.50738,0.33618 -1.397,-0.67707 -0.84776,-0.96557 -0.92163,-1.18493 -1.65202,-4.90549 -1.35146,-6.88422 -1.2806,-11.41753 0.271,-17.336082 0.90083,-3.436252 1.96185,-5.918646 3.65428,-8.549666 1.21031,-1.881523 3.35431,-4.149432 4.53458,-4.796646 0.76584,-0.419956 0.58568,-0.826784 -0.63979,-1.444751 -1.90421,-0.960229 -9.10127,-2.318928 -12.40704,-2.342265 -2.90071,-0.02048 -8.64024,1.173082 -11.57762,2.407617 -6.30704,2.650748 -12.2098,7.733598 -14.76341,12.712739 -2.13584,4.164552 -3.43078,10.708374 -3.26654,16.507024 0.10589,3.73836 1.78949,11.790431 3.19489,15.279981 0.55222,1.37114 2.40082,4.88461 4.10801,7.8077 3.52959,6.04348 4.15557,7.34081 5.92896,12.28765 0.6997,1.9518 1.70833,4.29514 2.2414,5.20742 0.85306,1.45991 1.04666,1.64248 1.6155,1.52337 0.51961,-0.1088 0.67639,-0.35356 0.79986,-1.24876 0.26362,-1.91132 -0.89811,-7.50512 -2.97861,-14.34215 -1.03409,-3.39825 -1.8411,-6.23839 -1.79335,-6.31142 0.0944,-0.1444 1.6412,2.8798 2.88491,5.64039 0.42846,0.95102 1.37255,4.05491 2.09798,6.89753 1.40126,5.49087 1.89884,6.77189 2.98374,7.68176 1.20801,1.01311 3.136,0.14247 4.46794,-2.01764 0.87282,-1.4155 0.96101,-2.50937 0.4737,-5.87497 -0.51708,-3.57114 -0.68042,-5.33167 -0.48268,-5.2024 0.0946,0.0619 0.85053,2.28646 1.67981,4.94358 0.82928,2.65712 1.66862,5.02294 1.86519,5.25736 0.91219,1.08784 3.76105,1.41206 6.80576,0.77454 3.66137,-0.76664 5.12024,-2.06614 5.35584,-4.77077 0.0528,-0.60576 -0.31553,-3.36261 -0.81844,-6.12635 -0.50291,-2.76373 -0.85777,-4.98797 -0.78859,-4.94274 0.41846,0.27356 1.9748,4.88406 2.87153,8.50659 1.15771,4.67683 1.46105,5.26329 3.01274,5.82473 0.99298,0.35929 1.61867,0.40192 7.43045,0.50627 6.18244,0.11101 7.00246,-0.73782 8.1184,-8.40362 0.3718,-2.55404 1.37543,-5.605 1.76091,-5.35301 0.0627,0.041 -0.11672,0.9661 -0.39873,2.05578 -1.24859,4.82469 -1.11162,9.33104 0.33537,11.03349 1.58929,1.86988 4.68292,2.94563 7.36284,2.56027 3.47674,-0.49993 5.06233,-2.70947 7.76876,-10.8259 0.60159,-1.80415 1.40134,-3.9326 1.77722,-4.7299 0.64327,-1.36446 2.2583,-3.47487 2.52553,-3.30018 0.13934,0.0911 -0.95414,3.10972 -3.10233,8.56417 -4.08711,10.37756 -4.29,11.52829 -2.23699,12.68781 1.21852,0.68821 2.16455,0.61113 3.46433,-0.28227 z m 7.22753,-43.499751 c -0.0338,-0.16145 0.11824,-1.52217 0.33787,-3.02382 1.12089,-7.663562 0.55245,-11.044372 -2.64761,-15.746815 -0.64318,-0.94514 -1.18304,-1.783536 -1.1997,-1.863103 -0.0167,-0.07957 0.44831,0.157652 1.03328,0.527152 1.4155,0.894113 2.85681,2.931517 3.7508,5.302033 1.26602,3.356991 1.34913,8.443733 0.2004,12.264903 -0.44094,1.46676 -1.36614,3.05972 -1.47504,2.53965 z m -69.07948,-2.16865 c -1.05316,-1.57538 -1.30501,-5.50226 -0.56565,-8.819622 0.77827,-3.49192 2.77673,-7.307697 4.60926,-8.800698 1.04939,-0.854962 2.78098,-1.572398 3.67631,-1.523176 0.77128,0.0424 0.75416,0.0706 -0.71673,1.180065 -4.13611,3.119799 -6.69921,9.649389 -6.58627,16.778781 0.0281,1.77125 0.01,1.82302 -0.41692,1.18465 z"
         style="fill:#000000;stroke-width:0.26458335" />
      <flowRoot
         transform="matrix(0.25654715,0,0,0.26458333,1.1370783,0)"
         style="font-style:normal;font-variant:normal;font-weight:normal;font-stretch:normal;font-size:40px;line-height:1.25;font-family:'Showcard Gothic';-inkscape-font-specification:'Showcard Gothic';letter-spacing:0px;word-spacing:0px;fill:#000000;fill-opacity:1;stroke:none"
         id="flowRoot4552"
         xml:space="preserve"><flowRegion
           style="font-style:normal;font-variant:normal;font-weight:normal;font-stretch:normal;font-family:'Showcard Gothic';-inkscape-font-specification:'Showcard Gothic'"
           id="flowRegion4554"><rect
             style="font-style:normal;font-variant:normal;font-weight:normal;font-stretch:normal;font-family:'Showcard Gothic';-inkscape-font-specification:'Showcard Gothic'"
             y="665.37683"
             x="140"
             height="188.57143"
             width="574.28571"
             id="rect4556" /></flowRegion><flowPara
           style="font-style:normal;font-variant:normal;font-weight:normal;font-stretch:normal;font-size:74.66666412px;font-family:'Showcard Gothic';-inkscape-font-specification:'Showcard Gothic'"
           id="flowPara4558">Lechnbakaren</flowPara></flowRoot>    </g>
  </g>
  <g
     inkscape:groupmode="layer"
     id="layer2"
     inkscape:label="Layer 2"
     style="display:inline">
    <flowRoot
       xml:space="preserve"
       id="flowRoot4524"
       style="font-style:normal;font-weight:normal;font-size:40px;line-height:1.25;font-family:sans-serif;letter-spacing:0px;word-spacing:0px;fill:#000000;fill-opacity:1;stroke:none"
       transform="scale(0.26458333)"><flowRegion
         id="flowRegion4526"><rect
           id="rect4528"
           width="191.42857"
           height="85.714287"
           x="254.28572"
           y="585.37683" /></flowRegion><flowPara
         id="flowPara4530"></flowPara></flowRoot>    <flowRoot
       xml:space="preserve"
       id="flowRoot4540"
       style="font-style:normal;font-weight:normal;font-size:40px;line-height:1.25;font-family:sans-serif;letter-spacing:0px;word-spacing:0px;fill:#000000;fill-opacity:1;stroke:none"
       transform="scale(0.26458333)"><flowRegion
         id="flowRegion4542"><rect
           id="rect4544"
           width="194.28572"
           height="62.857143"
           x="268.57144"
           y="622.51971" /></flowRegion><flowPara
         id="flowPara4546">lechnbakarenLevh</flowPara><flowPara
         id="flowPara4548" /></flowRoot>  </g>
</svg>
