<?xml version="1.0" encoding="utf-8"?>
<!-- Generator: Adobe Illustrator 13.0.2, SVG Export Plug-In . SVG Version: 6.00 Build 14948)  -->
<!DOCTYPE svg PUBLIC "-//W3C//DTD SVG 1.1//EN" "http://www.w3.org/Graphics/SVG/1.1/DTD/svg11.dtd">
<svg version="1.1" id="Layer_1" xmlns="http://www.w3.org/2000/svg" xmlns:xlink="http://www.w3.org/1999/xlink" x="0px" y="0px"
	 width="634px" height="720px" viewBox="-176.083 -200.72 633.553 720.001"
	 enable-background="new -176.083 -200.72 633.553 720.001" xml:space="preserve">
<path fill="#0065A4" stroke="#0065A4" stroke-width="2.2466" stroke-linecap="square" d="M358.606-176.325
	c48.434-7.281,88.271,30.475,78.18,97.053v377.969c0.197,47.1-37.16,70.668-76.02,88.971
	c-24.576,14.262-152.512,87.348-192.494,110.531c-16.336,5.586-36.541,6.295-51.762-1.076
	C40.331,450.702-77.173,387.69-77.058,387.667c-52.395-29.303-81.721-48.43-76.564-92.203l0.539-373.658
	c-5.695-73.482,26.68-91.645,69.555-97.592L358.606-176.325L358.606-176.325z"/>
<path fill="#FFFFFF" d="M-137.986,4.841h558.059v293.855c-1.053,29.344-8.15,35.686-24.803,49.605L174.204,478.247
	c-21.672,7.602-26.893,7.324-47.449,1.078l-240.479-139.109c-11.279-12.879-16.809-21.471-16.715-39.363
	C-130.535,295.858-137.904,4.848-137.986,4.841L-137.986,4.841z"/>
<path fill="#FFFFFF" stroke="#FFFFFF" stroke-width="0.5617" d="M165.577-97.066c2.572,4.377,4.01,9.646,4.852,14.018h7.01v-14.018
	H165.577L165.577-97.066z"/>
<path fill="#FFFFFF" stroke="#FFFFFF" stroke-width="0.5617" d="M-27.992-43.146c3.57,9.029,11.83,13.723,21.566,13.479
	c9.732,0.244,18.367-5.305,23.725-13.479h-19.41c-1.93,3.6-3.922,6.014-5.932,5.93c-3.342,0.084-4.299-2.139-4.314-5.393
	c0.016-0.342,0.018-0.441,0-0.537H-27.992L-27.992-43.146z M-29.611-60.941c-0.309,1.953-0.518,4.164-0.539,6.471
	c0.021,4.264,0.748,8.057,2.158,11.324h15.635c0.102-3.01,1.338-10.488,3.236-17.795H-29.611L-29.611-60.941z M3.821-60.941
	c-1.654,6.072-3.691,12.977-5.932,17.795h19.41c3.602-5.203,5.818-11.434,6.471-17.795H3.821L3.821-60.941z M-20.445-79.273
	c-4.631,4.998-7.811,11.287-9.166,18.332h20.49c1.977-7.473,4.568-14.779,7.549-18.332H-20.445L-20.445-79.273z M5.436-79.273
	c0.246,1.15,0.438,2.484,0.541,4.314c-0.104,2.014-0.943,7.605-2.156,14.018H23.77c-0.137-1.031-0.105-1.873,0-2.695
	c-0.105-6.332-1.631-11.496-4.314-15.637H5.436L5.436-79.273z M-1.572-79.273c0.984-1.074,2.084-1.789,3.234-1.619
	c1.789-0.172,2.891,0.543,3.773,1.619h14.02c-4.168-6.213-11.244-9.502-19.41-9.705c-7.99,0.203-15.271,3.959-20.49,9.705H-1.572
	L-1.572-79.273z"/>
<path fill="#FFFFFF" stroke="#FFFFFF" stroke-width="0.5617" d="M174.745-43.146c3.496,9.029,11.754,13.723,21.566,13.479
	c9.662,0.244,18.293-5.305,23.725-13.479h-19.412c-2,3.6-3.992,6.014-5.928,5.93c-3.418,0.084-4.375-2.139-4.318-5.393
	c-0.057-0.342-0.053-0.441,0-0.537H174.745L174.745-43.146z M173.125-60.941c-0.383,1.953-0.594,4.164-0.535,6.471
	c-0.059,4.264,0.67,8.057,2.154,11.324h15.633c0.031-3.01,1.264-10.488,3.236-17.795H173.125L173.125-60.941z M206.016-60.941
	c-1.189,6.072-3.225,12.977-5.393,17.795h19.412c3.527-5.203,5.748-11.434,6.473-17.795H206.016L206.016-60.941z M182.292-79.273
	c-4.709,4.998-7.885,11.287-9.166,18.332h20.488c1.904-7.473,4.496-14.779,7.545-18.332H182.292L182.292-79.273z M207.631-79.273
	c0.711,1.15,0.904,2.484,1.078,4.314c-0.174,2.014-1.018,7.605-2.697,14.018h20.492c-0.211-1.031-0.18-1.873,0-2.695
	c-0.18-6.332-1.707-11.496-4.316-15.637H207.631L207.631-79.273z M201.163-79.273c0.91-1.074,2.014-1.789,3.234-1.619
	c1.717-0.172,2.82,0.543,3.234,1.619h14.557c-4.242-6.213-11.316-9.502-19.41-9.705c-8.064,0.203-15.346,3.959-20.488,9.705H201.163
	L201.163-79.273z"/>
<path fill="#FFFFFF" stroke="#FFFFFF" stroke-width="0.5617" d="M265.327-25.353h18.869c-1.283,5.842-2.477,11.725-3.234,18.33
	h-21.025L265.327-25.353L265.327-25.353z M228.663-43.146h18.871c-0.797,3.943-1.502,7.979-2.158,11.859h-21.029
	C226.069-34.654,227.483-38.798,228.663-43.146L228.663-43.146z M270.178-43.146h19.41c-0.469,0.908-0.701,1.754-0.535,2.156
	c-0.162,1.988,1.211,2.688,2.693,2.693c1.584-0.006,3.338-1.926,4.852-4.852h19.414c-5.326,7.91-12.711,13.725-21.57,13.479
	c-2.693,0.246-5.66-0.922-8.086-2.693c-0.629,2.381-1.316,4.752-2.16,7.01h-18.869L270.178-43.146L270.178-43.146z M233.514-60.941
	h19.953c-1.645,3.596-2.92,7.332-3.238,8.629c-1.1,3.09-1.904,6.094-2.693,9.166h-18.869
	C230.536-49.025,232.09-55.281,233.514-60.941L233.514-60.941z M275.575-60.941h18.332l-3.777,15.635
	c-0.35,0.877-0.551,1.525-0.541,2.16h-19.41L275.575-60.941L275.575-60.941z M303.608-60.941h19.412
	c-1.277,6-3.721,12.373-7.008,17.795h-19.414C299.399-47.802,301.838-54.986,303.608-60.941L303.608-60.941z M232.436-79.273h18.328
	c0.338,0.945,0.383,1.779,0.541,2.695c-0.158,1.709-0.369,3.344-0.541,4.854h0.541c1.018-1.986,2.369-4.744,3.773-7.549h19.951
	l-3.234,2.695l2.156,4.312c1.701-0.969,3.924-1.201,3.777,1.619c0.146,1.617-0.807,4.305-1.619,6.471l-0.535,3.234h18.332
	l1.074-4.852c2.062-7.793,6.086-11.297,8.09-11.322c2.127,0.025,2.656,2.83,2.697,4.85c-0.045,1.65-0.891,6.039-2.158,11.324h19.416
	c0.262-2.645,0.49-5.066,0.535-7.549c-0.045-3.635-0.637-7.385-2.158-10.783h-26.959c-0.234,0.162-0.248,0.18,0,0
	c-0.264,0.184-0.266,0.162-0.537,0h-18.332c0.145,0.219,0.145,0.266,0,0.539c0.145,6.551-2.713,11.574-9.168,11.322
	c-5.51,0.252-4.451-3.953-6.471-3.773c-1.865-0.18-4.459,4.986-6.469,10.244h-19.951c0.26-0.609,0.371-1.02,0.539-1.617
	c0.791-2.967,1.318-5.535,1.08-6.471c0.236-1.635,0.236-3.504-1.08-3.773c-1.117,0.27-2.281,0.852-3.234,1.078l-2.154-4.854
	L232.436-79.273L232.436-79.273z M250.768-79.273h-18.332l12.943-9.705C248.963-85.714,250.547-82.732,250.768-79.273
	L250.768-79.273z M275.575-79.273h18.332c-0.373-2.998-1.861-7.059-4.854-9.705l-14.023,9.705h-19.947
	c3.203-4.861,7.08-9.502,12.402-9.705C272.598-88.773,275.667-84.751,275.575-79.273L275.575-79.273z M321.401-79.273h-26.959
	c3.27-4.629,8.127-9.502,14.016-9.705C315.198-88.773,319.446-84.724,321.401-79.273L321.401-79.273z"/>
<path fill="#FFFFFF" stroke="#FFFFFF" stroke-width="0.5617" d="M321.401-43.146c-0.236,0.525-0.273,1.1-0.535,1.617
	c0.262,10.471,12.967,12.105,19.947,11.861c9.234,0.244,18.254-4.406,21.027-13.479h-14.016c-0.029,0.234-0.014,0.49,0,0.537
	c-0.014,3.721-3.299,5.477-5.934,5.393c-1.814,0.084-4.035,0.084-4.314-3.236c-0.143-0.934-0.299-1.857-0.539-2.693H321.401
	L321.401-43.146z M330.567-60.941c4.533,8.242,16.4,10.615,17.258,17.795h14.016c0.943-2.113,1.322-4.422,1.074-7.01
	c0.246-4.812-1.127-8.301-3.23-10.785H330.567L330.567-60.941z M337.038-43.146c-1.059-4.416-3.633-7.189-8.627-7.01
	c-3.986-0.18-6.615,2.822-7.01,7.01H337.038L337.038-43.146z M331.647-79.273c-1.873,3.096-2.896,6.674-2.699,10.783
	c-0.197,2.93,0.479,5.312,1.623,7.549h29.115c-5.385-7.486-15.582-8.752-15.637-15.098c0.055-1.314,0.414-2.299,1.078-3.234H331.647
	L331.647-79.273z M352.674-79.273c0.342,5.744,4.678,9.426,7.547,9.168c4.955,0.258,8.66-1.961,8.629-7.551
	c0.031-0.447-0.016-0.967,0-1.617H352.674L352.674-79.273z M345.127-79.273c0.785-1.039,2.137-1.789,3.773-1.619
	c1.135-0.172,3.041,0.648,3.775,1.08c-0.197,0.256-0.184,0.475,0,0.539h16.176c-1.492-7.641-13.262-9.502-18.867-9.705
	c-7.75,0.203-14.746,3.604-18.338,9.705H345.127L345.127-79.273z"/>
<path fill="#FFFFFF" stroke="#FFFFFF" stroke-width="0.5617" d="M-90-43.146c0.188,10.623,11.496,13.84,19.412,14.018
	c11.842-0.182,21.031-5.086,26.959-14.018h-19.412c-1.23,2.881-2.402,5.193-3.773,5.391c-0.74-0.195-0.74-1.598-0.539-3.234
	c-0.201-0.641-0.252-1.404-0.539-2.156H-90L-90-43.146z M-58.726-60.941l-1.617,6.471c-0.447,1.697-1.508,7.111-2.697,11.324h19.412
	c3.141-4.312,5.379-9.537,7.01-15.639l0.539-2.156H-58.726L-58.726-60.941z M-67.892-43.146
	c-0.641-6.408-4.865-12.564-11.322-12.402C-85.769-55.71-90.003-50.685-90-43.687c-0.004,0.332-0.002,0.422,0,0.541H-67.892
	L-67.892-43.146z M-54.412-79.273l-4.314,18.332h22.646l4.312-18.332H-54.412L-54.412-79.273z M-50.099-97.066l-4.312,17.793h22.645
	l4.314-17.793H-50.099L-50.099-97.066z M-27.453-97.066l2.156-8.088l4.852-0.541l1.619-7.01h-32.891l-1.617,7.01l5.391,1.08
	l-2.156,7.549H-27.453L-27.453-97.066z"/>
<path fill="#FFFFFF" stroke="#FFFFFF" stroke-width="0.5617" d="M24.848-43.146c1.852,9.469,9.711,13.723,18.871,13.479
	c9.475,0.244,18.549-5.336,24.803-13.479H50.729c-1.992,3.584-4.352,6.014-7.01,5.93c-1.584,0.084-3.066-1.904-3.234-4.854
	c0.168-0.104,0.248-0.574,0.539-1.078H24.848V-43.146z M27.543-60.941l-1.617,5.932c-0.945,3.271-1.156,6.074-1.078,8.088
	c-0.078,1.311,0.027,2.568,0,3.775h16.176c0.027-0.855,0.322-1.826,0.539-2.697l4.854-15.098H27.543L27.543-60.941z M57.2-60.941
	c-1.367,5.914-3.617,12.908-6.471,17.795h17.793c4.318-5.219,7.371-11.467,8.627-17.795H57.2L57.2-60.941z M32.936-79.273
	l-5.393,18.332h18.873l1.617-6.471c1.197-3.838,3.207-9.68,8.088-9.703c2.32,0.025,3.168,1.543,3.234,4.312
	c-0.066,1.871-0.771,6.445-2.156,11.861h19.949c0.859-3.025,1.199-5.914,1.078-8.627c0.121-3.445-0.34-6.686-1.078-9.705H32.936
	L32.936-79.273z M38.329-97.066l-5.393,17.793h44.213c-2.189-5.408-6.156-9.502-12.939-9.705c-4.496,0.203-7.777,2.541-11.324,5.93
	v-0.537l4.314-13.48H38.329L38.329-97.066z M57.2-97.066l7.01-23.186l-26.961,5.93l-1.617,5.934c2.48,0.338,4.494,0.453,4.314,3.234
	c0.176,0.842-0.139,2.711-0.539,4.852l-1.078,3.236H57.2L57.2-97.066z"/>
<path fill="#FFFFFF" stroke="#FFFFFF" stroke-width="0.5617" d="M113.815-43.146c4.67,8.52,12.652,13.84,23.725,14.018
	c12.416-0.182,20.191-5.48,27.498-14.018h-12.943c-2.381,1.467-5.135,2.389-8.088,2.156c-2.881,0.232-5.131-0.678-7.01-2.156
	H113.815L113.815-43.146z M109.5-60.941c0.34,6.609,1.801,12.748,4.314,17.795h23.184c-3.432-3.059-5.076-8.48-4.854-14.02
	c-0.223-0.926-0.148-2.33,0-3.775H109.5L109.5-60.941z M165.038-43.146c1.719-1.709,3.189-3.518,4.85-5.393l-4.85-7.551
	c-3.752,4.66-7.797,9.928-12.943,12.943H165.038L165.038-43.146z M112.196-79.273c-1.756,5.482-2.617,10.953-2.695,16.174
	c0.078,0.674,0.09,1.311,0,2.158h22.648c0.43-4.883,1.48-11.477,3.234-18.332H112.196L112.196-79.273z M120.825-97.066
	c-3.922,5.354-6.885,11.553-8.629,17.793h23.186c1.537-6.264,3.723-12.773,6.471-17.793H120.825L120.825-97.066z M141.852-97.066
	c3.031-5.49,6.736-9.232,11.322-9.166c5.682-0.066,9.797,3.928,12.402,9.166h11.861v-16.715c-2.631,1.992-6.76,3.51-8.627,3.773
	c-2.479-0.264-5.336-1.781-8.631-2.697c-3.164-0.953-6.766-1.889-10.242-2.156c-11.783,0.268-22.016,7.527-29.113,17.795H141.852
	L141.852-97.066z"/>
<polygon fill="#0065A4" points="32.936,3.223 72.836,3.223 72.836,381.196 32.936,381.196 "/>
<polygon fill="#0065A4" points="207.631,4.3 247.534,4.3 247.534,382.272 207.631,382.272 "/>
<polygon fill="#0065A4" points="236.745,48.518 236.745,88.415 34.014,88.415 34.014,48.518 "/>
<polygon fill="#0065A4" points="244.297,124.54 244.297,164.44 41.563,164.44 41.563,124.54 "/>
<polygon fill="#0065A4" points="242.143,200.026 242.143,239.925 39.407,239.925 39.407,200.026 "/>
<polygon fill="#0065A4" points="240.524,276.052 240.524,315.952 37.788,315.952 37.788,276.052 "/>
<polygon fill="#D73647" stroke="#D73647" stroke-width="2.2466" points="119.745,113.218 159.645,113.218 159.645,430.8 
	119.745,430.8 "/>
<polygon fill="#D73647" stroke="#D73647" stroke-width="2.2466" points="206.553,176.302 171.506,195.716 122.442,103.51 
	140.774,81.944 "/>
<polygon fill="#D73647" stroke="#D73647" stroke-width="2.2466" points="72.297,175.764 106.805,195.173 155.868,102.971 
	140.235,79.249 "/>
<polygon fill="#D73647" stroke="#D73647" stroke-width="2.2466" stroke-linecap="round" stroke-linejoin="round" points="
	-137.986,5.964 -64.658,5.964 -64.658,376.927 -137.986,336.487 "/>
<polygon fill="#D73647" stroke="#D73647" stroke-width="2.2466" points="424.385,5.964 345.127,5.964 345.127,381.241 
	424.385,336.485 "/>
<polygon fill="#D73647" stroke="#D73647" stroke-width="2.2466" points="-36.619,5.964 3.28,5.964 3.28,426.532 -36.619,406.581 "/>
<polygon fill="#D73647" stroke="#D73647" stroke-width="2.2466" points="316.012,5.964 276.649,5.964 276.649,426.532 
	316.012,406.042 "/>
<polygon fill="#FFFFFF" stroke="#FFFFFF" stroke-width="0.5617" points="274.686,-79.976 269.92,-76.21 273.823,-71.759 
	278.909,-77.388 "/>
<path fill="none" stroke="#0065A4" stroke-width="40.4391" stroke-linecap="round" stroke-linejoin="round" stroke-miterlimit="3.8637" d="
	M357.528-179.562c48.316-7.486,88.152,30.271,78.182,97.053v377.432c0.078,47.432-37.281,71-76.025,88.967
	c-24.689,14.596-152.627,87.682-192.492,110.533c-16.449,5.922-36.656,6.627-52.299-0.537
	C39.133,447.257-78.402,384.302-78.136,384.428c-21.355-10.408-81.838-48.635-76.564-92.201l-0.541-359.639
	c-5.627-73.533,27.643-105.871,70.635-112.15H357.528L357.528-179.562z"/>
</svg>
